<?xml version="1.0" encoding="utf-8"?>
<!-- Generator: Adobe Illustrator 19.0.1, SVG Export Plug-In . SVG Version: 6.00 Build 0)  -->
<svg version="1.1" id="Layer_1" xmlns="http://www.w3.org/2000/svg" xmlns:xlink="http://www.w3.org/1999/xlink" x="0px" y="0px"
	 viewBox="0 0 1920 1000" style="enable-background:new 0 0 1920 1000;" xml:space="preserve">
<style type="text/css">
	.st0{fill:none;stroke:#BCBEC0;stroke-miterlimit:10;}
	.st1{fill:#A7A9AC;stroke:#BCBEC0;stroke-miterlimit:10;}
	.st2{fill:#E5ECC8;}
	.st3{fill:#DCECCB;}
	.st4{fill:#212121;}
	.st5{font-family:'Roboto-Regular';}
	.st6{font-size:27.3164px;}
</style>
<line class="st0" x1="958.4" y1="817.8" x2="112.6" y2="815.6"/>
<line class="st0" x1="1804.6" y1="818.3" x2="958.4" y2="817.8"/>
<circle class="st1" cx="959.6" cy="818.3" r="9.1"/>
<line class="st0" x1="958.4" y1="817.8" x2="229" y2="563.6"/>
<line class="st0" x1="958.4" y1="817.8" x2="1740.8" y2="572.7"/>
<line class="st0" x1="958.4" y1="817.8" x2="422.9" y2="327.7"/>
<line class="st0" x1="958.4" y1="817.8" x2="1560.1" y2="327.7"/>
<line class="st0" x1="958.4" y1="817.8" x2="652.5" y2="140.9"/>
<line class="st0" x1="958.4" y1="817.8" x2="1312.3" y2="140.9"/>
<circle class="st2" cx="112.6" cy="815.6" r="63.8"/>
<circle class="st2" cx="229" cy="563.6" r="63.8"/>
<circle class="st2" cx="422.9" cy="327.7" r="63.8"/>
<circle class="st2" cx="652.5" cy="140.9" r="63.8"/>
<circle class="st2" cx="1804.6" cy="818.3" r="63.8"/>
<circle class="st2" cx="1740.8" cy="563.6" r="63.8"/>
<circle class="st2" cx="1560.1" cy="327.7" r="63.8"/>
<circle class="st2" cx="1312.3" cy="140.9" r="63.8"/>
<ellipse class="st3" cx="422.9" cy="327.7" rx="39.5" ry="37.2"/>
<ellipse class="st3" cx="422.9" cy="327.7" rx="39.5" ry="37.2"/>
<ellipse class="st3" cx="229" cy="563.6" rx="39.5" ry="37.2"/>
<ellipse class="st3" cx="112.6" cy="818.3" rx="39.5" ry="37.2"/>
<ellipse class="st3" cx="652.5" cy="140.9" rx="39.5" ry="37.2"/>
<ellipse class="st3" cx="1312.3" cy="140.9" rx="39.5" ry="37.2"/>
<ellipse class="st3" cx="1560.1" cy="327.7" rx="39.5" ry="37.2"/>
<ellipse class="st3" cx="1740.8" cy="563.6" rx="39.5" ry="37.2"/>
<ellipse class="st3" cx="1804.6" cy="818.3" rx="39.5" ry="37.2"/>
<text transform="matrix(1 0 0 1 499.2837 146.6174)" class="st4 st5 st6">Резистентность к пыли</text>
<text transform="matrix(1 0 0 1 324.7152 336.3044)" class="st4 st5 st6">Долговечность</text>
<text transform="matrix(1 0 0 1 120.146 576.2112)" class="st4 st5 st6">Не требует ухода</text>
<text transform="matrix(1 0 0 1 10.8794 826.7542)" class="st4 st5 st6">Гипоалергенный</text>
<text transform="matrix(1 0 0 1 1719.5264 827.4534)" class="st4 st5 st6">Безопасность</text>
<text transform="matrix(1 0 0 1 1648.4834 576.2112)" class="st4 st5 st6">Звукоизоляция</text>
<text transform="matrix(1 0 0 1 1462.8993 336.304)" class="st4 st5 st6">Натуральность</text>
<text transform="matrix(1 0 0 1 1168.536 147.2239)" class="st4 st5 st6">Индикатор влажности</text>
</svg>
